<?xml version="1.0" standalone="no"?>
<!DOCTYPE svg PUBLIC "-//W3C//DTD SVG 20010904//EN"
 "http://www.w3.org/TR/2001/REC-SVG-20010904/DTD/svg10.dtd">
<svg version="1.0" xmlns="http://www.w3.org/2000/svg"
 width="1206.000000pt" height="1294.000000pt" viewBox="0 0 1206.000000 1294.000000"
 preserveAspectRatio="xMidYMid meet">

<g transform="translate(0.000000,1294.000000) scale(0.100000,-0.100000)"
fill="#000000" stroke="none">
<path d="M0 6470 l0 -6470 6030 0 6030 0 0 6470 0 6470 -6030 0 -6030 0 0
-6470z m3133 5876 c9 -19 24 -75 34 -123 26 -129 26 -640 0 -796 -69 -407
-203 -747 -533 -1349 -411 -750 -498 -1049 -395 -1358 36 -107 95 -213 155
-278 119 -129 345 -229 778 -343 615 -161 952 -284 1133 -413 73 -52 100 -85
180 -214 133 -216 150 -184 48 90 -84 230 -120 422 -130 698 -12 364 50 650
162 749 47 41 80 54 105 41 48 -26 58 -88 70 -440 12 -353 27 -436 107 -595
95 -189 275 -381 703 -745 493 -420 788 -697 1015 -954 310 -351 514 -653 730
-1081 187 -368 249 -533 371 -978 45 -167 65 -253 58 -262 -5 -7 -46 -62 -91
-121 -46 -60 -83 -112 -83 -116 0 -19 35 -2 175 83 211 129 293 163 330 135
51 -37 -48 -197 -305 -491 -102 -117 -617 -645 -629 -645 -4 0 -26 80 -50 178
-57 233 -176 649 -241 843 -158 473 -385 938 -638 1303 -438 634 -1014 1123
-1763 1496 -523 260 -831 339 -1569 400 -657 54 -1010 136 -1161 269 -124 109
-231 366 -270 651 -17 120 -17 411 0 514 27 165 74 304 127 373 20 26 32 33
59 33 28 0 36 -5 40 -22 3 -13 14 -131 25 -263 31 -373 65 -543 137 -693 52
-108 168 -225 273 -275 125 -58 193 -72 375 -71 166 0 226 10 330 54 67 29 58
42 -22 33 -38 -4 -153 -7 -258 -7 -174 0 -197 2 -272 25 -252 78 -391 275
-442 629 -6 41 -18 167 -26 279 -32 411 -51 464 -262 717 -266 319 -338 456
-363 684 -29 259 45 620 126 620 23 0 50 -72 74 -199 52 -279 144 -460 265
-524 87 -47 229 -20 365 68 283 183 640 762 854 1384 85 248 127 425 186 795
17 103 37 201 46 217 20 39 47 37 67 -5z m6206 -1 c8 -17 17 -85 22 -163 15
-236 69 -486 173 -795 293 -869 774 -1527 1117 -1527 78 0 126 19 184 72 90
82 138 197 185 441 27 142 56 233 76 241 74 29 134 -198 134 -504 -1 -195 -17
-291 -67 -390 -47 -93 -163 -259 -257 -368 -110 -129 -215 -264 -230 -297 -18
-38 -41 -199 -61 -435 -19 -221 -37 -343 -70 -467 -59 -222 -162 -367 -310
-437 -120 -57 -146 -61 -415 -61 -249 0 -295 -7 -208 -33 139 -41 433 -55 561
-26 206 47 344 182 426 417 41 116 65 239 96 487 28 224 54 354 78 377 26 26
54 6 87 -60 104 -214 132 -684 60 -1018 -73 -340 -271 -552 -590 -633 -127
-32 -405 -71 -685 -96 -642 -57 -910 -98 -1155 -180 -354 -117 -737 -311
-1136 -576 -111 -73 -222 -143 -246 -155 -45 -21 -46 -21 -70 -3 -14 10 -38
36 -54 58 -64 87 -202 248 -386 447 -106 116 -195 214 -196 220 -6 17 210 211
538 483 391 325 532 487 624 717 61 152 76 249 86 569 5 157 13 301 18 320 26
104 70 112 151 31 53 -53 88 -124 116 -235 38 -152 48 -267 42 -499 -7 -303
-37 -462 -136 -729 -93 -250 -74 -279 47 -71 144 247 394 375 1116 573 298 82
531 153 666 205 418 159 591 522 471 987 -54 209 -143 404 -341 753 -232 407
-387 717 -443 890 -176 538 -228 1303 -101 1483 23 33 64 26 83 -13z m-5238
-6041 c144 -43 635 -285 854 -421 750 -468 1263 -1138 1564 -2043 203 -610
333 -1439 335 -2140 1 -426 -11 -477 -129 -531 -142 -64 -391 -119 -540 -119
-209 0 -587 110 -614 178 -28 75 -45 242 -66 662 -54 1082 -148 1596 -375
2055 -98 197 -182 316 -325 460 -128 130 -224 204 -413 322 -257 160 -335 228
-346 304 -17 121 -26 379 -26 812 0 388 2 477 13 477 7 0 38 -7 68 -16z m4244
-6 c4 -13 10 -189 12 -393 6 -466 -14 -852 -48 -937 -15 -37 -172 -151 -334
-243 -74 -43 -137 -76 -139 -74 -2 2 -44 103 -94 224 -112 274 -183 428 -285
618 -78 146 -126 261 -127 304 0 16 15 34 48 58 82 61 904 464 948 465 7 0 15
-10 19 -22z m-3863 -2358 c185 -95 381 -245 488 -374 74 -90 153 -221 189
-316 32 -81 85 -324 79 -360 -2 -16 -55 30 -249 222 -300 297 -514 547 -632
741 -89 146 -47 175 125 87z"/>
</g>
</svg>
